<?xml version="1.0" encoding="iso-8859-1"?>
<!-- Generator: Adobe Illustrator 16.0.0, SVG Export Plug-In . SVG Version: 6.00 Build 0)  -->
<!DOCTYPE svg PUBLIC "-//W3C//DTD SVG 1.1//EN" "http://www.w3.org/Graphics/SVG/1.1/DTD/svg11.dtd">
<svg version="1.1" id="Capa_1" xmlns="http://www.w3.org/2000/svg" xmlns:xlink="http://www.w3.org/1999/xlink" x="0px" y="0px"
	 width="173.303px" height="173.304px" viewBox="0 0 173.303 173.304" style="enable-background:new 0 0 173.303 173.304;"
	 xml:space="preserve">
<g>
	<path d="M58.732,173.304h96.756c0,0-28.077-22.566-27.486-47.307c0.354-13.791,27.486-31.328,27.353-69.645
		C155.27,37.09,136.588,5.067,104.864,1.082C73.136-2.916,49.392,4.068,39.016,23.63C28.627,43.182,27.842,60.351,28.64,63.535
		c0.807,3.199,4.192,9.186,4.192,9.186S16.87,97.263,17.859,101.245c1.011,4,11.959,6.15,11.959,6.15s0.993,2.77-1.008,8.159
		c-1.997,5.389,3.714,11.648,5.432,13.835c1.69,2.18-2.402,8.969-1.011,12.774c1.395,3.781,7.986,8.372,15.564,7.38
		c7.587-0.998,17.32-2.789,20.7-3.397C77.127,164.109,58.732,173.304,58.732,173.304z M70.892,103.485v-7.459
		c0-4.28,3.477-8.08,8.896-10.534c-1.078-0.883-1.689-1.851-1.689-2.886c0-2.062,2.396-3.9,6.123-5.085l2.301-23.315
		c-4.731-0.773-7.925-2.226-7.925-3.909c0-1.945,4.339-3.61,10.406-4.231c-3.729-1.909-6.278-5.788-6.278-10.267
		c0-3.583,1.632-5.212,4.196-5.94c-0.083-0.819-0.131-1.647-0.131-2.5c0-7.56,7.454-12.492,7.454-18.646
		c0,6.224,7.459,11.086,7.459,18.646c0,0.858-0.043,1.687-0.128,2.5c2.563,0.728,4.195,2.356,4.195,5.94
		c0,4.479-2.558,8.357-6.278,10.267c6.065,0.621,10.407,2.28,10.407,4.231c0,1.684-3.197,3.136-7.929,3.909l2.302,23.315
		c3.727,1.185,6.126,3.023,6.126,5.085c0,1.035-0.615,2.003-1.693,2.886c5.42,2.46,8.896,6.26,8.896,10.534v7.459
		c0,7.417-10.455,13.434-23.364,13.434C81.347,116.925,70.892,110.908,70.892,103.485z"/>
</g>
<g>
</g>
<g>
</g>
<g>
</g>
<g>
</g>
<g>
</g>
<g>
</g>
<g>
</g>
<g>
</g>
<g>
</g>
<g>
</g>
<g>
</g>
<g>
</g>
<g>
</g>
<g>
</g>
<g>
</g>
</svg>
